<?xml version="1.0" encoding="UTF-8" standalone="no"?>
<!DOCTYPE svg PUBLIC "-//W3C//DTD SVG 1.1//EN"
 "http://www.w3.org/Graphics/SVG/1.1/DTD/svg11.dtd">
<!-- Generated by graphviz version 14.1.2 (0)
 -->
<!-- Pages: 1 -->
<svg width="298pt" height="260pt"
 viewBox="0.00 0.00 298.00 260.00" xmlns="http://www.w3.org/2000/svg" xmlns:xlink="http://www.w3.org/1999/xlink">
<g id="graph0" class="graph" transform="scale(1 1) rotate(0) translate(4 256)">
<polygon fill="white" stroke="none" points="-4,4 -4,-256 294.09,-256 294.09,4 -4,4"/>
<!-- :android:app -->
<g id="node1" class="node">
<title>:android:app</title>
<ellipse fill="none" stroke="black" cx="145.57" cy="-234" rx="74.36" ry="18"/>
<text xml:space="preserve" text-anchor="middle" x="145.57" y="-229.32" font-family="Times,serif" font-size="14.00">:android:app</text>
</g>
<!-- :android:lib -->
<g id="node2" class="node">
<title>:android:lib</title>
<ellipse fill="none" stroke="black" cx="68.57" cy="-162" rx="68.57" ry="18"/>
<text xml:space="preserve" text-anchor="middle" x="68.57" y="-157.32" font-family="Times,serif" font-size="14.00">:android:lib</text>
</g>
<!-- :android:app&#45;&gt;:android:lib -->
<g id="edge1" class="edge">
<title>:android:app&#45;&gt;:android:lib</title>
<path fill="none" stroke="black" d="M127.32,-216.41C117.8,-207.76 105.97,-197 95.43,-187.42"/>
<polygon fill="black" stroke="black" points="97.83,-184.87 88.07,-180.73 93.12,-190.05 97.83,-184.87"/>
</g>
<!-- :kotlin:kmp -->
<g id="node5" class="node">
<title>:kotlin:kmp</title>
<ellipse fill="none" stroke="black" cx="222.57" cy="-162" rx="67.52" ry="18"/>
<text xml:space="preserve" text-anchor="middle" x="222.57" y="-157.32" font-family="Times,serif" font-size="14.00">:kotlin:kmp</text>
</g>
<!-- :android:app&#45;&gt;:kotlin:kmp -->
<g id="edge2" class="edge">
<title>:android:app&#45;&gt;:kotlin:kmp</title>
<path fill="none" stroke="black" d="M163.82,-216.41C173.34,-207.76 185.17,-197 195.71,-187.42"/>
<polygon fill="black" stroke="black" points="198.02,-190.05 203.07,-180.73 193.31,-184.87 198.02,-190.05"/>
</g>
<!-- :kotlin:jvm -->
<g id="node4" class="node">
<title>:kotlin:jvm</title>
<ellipse fill="none" stroke="black" cx="133.57" cy="-90" rx="64.36" ry="18"/>
<text xml:space="preserve" text-anchor="middle" x="133.57" y="-85.33" font-family="Times,serif" font-size="14.00">:kotlin:jvm</text>
</g>
<!-- :android:lib&#45;&gt;:kotlin:jvm -->
<g id="edge3" class="edge">
<title>:android:lib&#45;&gt;:kotlin:jvm</title>
<path fill="none" stroke="black" d="M84.3,-144.05C92.13,-135.63 101.74,-125.28 110.39,-115.97"/>
<polygon fill="black" stroke="black" points="112.71,-118.61 116.95,-108.9 107.58,-113.84 112.71,-118.61"/>
</g>
<!-- :other -->
<g id="node6" class="node">
<title>:other</title>
<ellipse fill="none" stroke="black" cx="145.57" cy="-18" rx="41.21" ry="18"/>
<text xml:space="preserve" text-anchor="middle" x="145.57" y="-13.32" font-family="Times,serif" font-size="14.00">:other</text>
</g>
<!-- :android:lib&#45;&gt;:other -->
<g id="edge4" class="edge">
<title>:android:lib&#45;&gt;:other</title>
<path fill="none" stroke="black" d="M61.55,-143.74C55.06,-124.88 48.15,-94.38 60.57,-72 69.93,-55.13 87.15,-42.92 103.65,-34.51"/>
<polygon fill="black" stroke="black" points="104.83,-37.82 112.39,-30.4 101.85,-31.49 104.83,-37.82"/>
</g>
<!-- :java -->
<g id="node3" class="node">
<title>:java</title>
<ellipse fill="none" stroke="black" cx="250.57" cy="-90" rx="34.9" ry="18"/>
<text xml:space="preserve" text-anchor="middle" x="250.57" y="-85.33" font-family="Times,serif" font-size="14.00">:java</text>
</g>
<!-- :java&#45;&gt;:other -->
<g id="edge5" class="edge">
<title>:java&#45;&gt;:other</title>
<path fill="none" stroke="black" d="M229.83,-75.17C214.6,-65.02 193.66,-51.06 176.46,-39.6"/>
<polygon fill="black" stroke="black" points="178.88,-37 168.61,-34.36 174.99,-42.82 178.88,-37"/>
</g>
<!-- :kotlin:kmp&#45;&gt;:java -->
<g id="edge6" class="edge">
<title>:kotlin:kmp&#45;&gt;:java</title>
<path fill="none" stroke="black" d="M229.49,-143.7C232.51,-136.15 236.12,-127.12 239.5,-118.68"/>
<polygon fill="black" stroke="black" points="242.7,-120.09 243.17,-109.51 236.2,-117.49 242.7,-120.09"/>
</g>
<!-- :kotlin:kmp&#45;&gt;:kotlin:jvm -->
<g id="edge7" class="edge">
<title>:kotlin:kmp&#45;&gt;:kotlin:jvm</title>
<path fill="none" stroke="black" d="M201.93,-144.76C190.44,-135.73 175.94,-124.33 163.26,-114.35"/>
<polygon fill="black" stroke="black" points="165.62,-111.76 155.6,-108.33 161.29,-117.26 165.62,-111.76"/>
</g>
</g>
</svg>
